<svg width="41" height="41" viewBox="0 0 41 41" fill="none" xmlns="http://www.w3.org/2000/svg">
<path d="M32.4583 11.9583C32.4583 10.0791 30.9208 8.54163 29.0417 8.54163H25.625C24.6854 8.54163 23.9167 9.31038 23.9167 10.25C23.9167 11.1895 24.6854 11.9583 25.625 11.9583H29.0417V16.4854L23.0967 23.9166H17.0833V17.0833C17.0833 16.1437 16.3146 15.375 15.375 15.375H10.25C6.47459 15.375 3.41667 18.4329 3.41667 22.2083V25.625C3.41667 26.5645 4.18542 27.3333 5.12501 27.3333H6.83334C6.83334 30.1691 9.12251 32.4583 11.9583 32.4583C14.7942 32.4583 17.0833 30.1691 17.0833 27.3333H23.0967C24.1388 27.3333 25.1125 26.855 25.7617 26.052L31.7067 18.6208C32.2021 18.0058 32.4583 17.2541 32.4583 16.4854V11.9583ZM11.9583 29.0416C11.0188 29.0416 10.25 28.2729 10.25 27.3333H13.6667C13.6667 28.2729 12.8979 29.0416 11.9583 29.0416Z" fill="#272727"/>
<path d="M10.25 10.25H15.375C16.3146 10.25 17.0833 11.0188 17.0833 11.9583C17.0833 12.8979 16.3146 13.6667 15.375 13.6667H10.25C9.31042 13.6667 8.54167 12.8979 8.54167 11.9583C8.54167 11.0188 9.31042 10.25 10.25 10.25ZM32.4583 22.2083C29.6225 22.2083 27.3333 24.4975 27.3333 27.3333C27.3333 30.1692 29.6225 32.4583 32.4583 32.4583C35.2942 32.4583 37.5833 30.1692 37.5833 27.3333C37.5833 24.4975 35.2942 22.2083 32.4583 22.2083ZM32.4583 29.0417C31.5188 29.0417 30.75 28.2729 30.75 27.3333C30.75 26.3938 31.5188 25.625 32.4583 25.625C33.3979 25.625 34.1667 26.3938 34.1667 27.3333C34.1667 28.2729 33.3979 29.0417 32.4583 29.0417Z" fill="#272727"/>
</svg>
