<svg width="42" height="41" viewBox="0 0 42 41" fill="none" xmlns="http://www.w3.org/2000/svg">
<path d="M3.0625 12.1719C3.0625 10.9825 3.53496 9.84193 4.37594 9.00094C5.21693 8.15996 6.35754 7.6875 7.54688 7.6875H34.4531C35.6425 7.6875 36.7831 8.15996 37.6241 9.00094C38.465 9.84193 38.9375 10.9825 38.9375 12.1719V18.172C38.7041 18.0527 38.4637 17.9478 38.2174 17.8581L38.1918 17.8478L37.8907 17.7479L36.9464 17.4634C36.759 17.4067 36.5682 17.3622 36.375 17.3302V12.1719C36.375 11.6622 36.1725 11.1733 35.8121 10.8129C35.4517 10.4525 34.9628 10.25 34.4531 10.25H7.54688C7.03716 10.25 6.54833 10.4525 6.1879 10.8129C5.82748 11.1733 5.625 11.6622 5.625 12.1719V28.8281C5.625 29.3378 5.82748 29.8267 6.1879 30.1871C6.54833 30.5475 7.03716 30.75 7.54688 30.75H13.3125V28.1875C13.3125 27.5079 13.5825 26.8561 14.063 26.3755C14.5436 25.895 15.1954 25.625 15.875 25.625H26.125C26.8046 25.625 27.4564 25.895 27.937 26.3755C28.4175 26.8561 28.6875 27.5079 28.6875 28.1875V29.3137C28.1412 29.3128 27.6009 29.4283 27.1027 29.6525C26.6045 29.8768 26.1598 30.2046 25.7983 30.6142L25.7675 30.6501L25.592 30.8704L23.829 33.3125H7.54688C6.35754 33.3125 5.21693 32.84 4.37594 31.9991C3.53496 31.1581 3.0625 30.0175 3.0625 28.8281V12.1719ZM26.125 17.9375C26.125 19.2967 25.585 20.6003 24.6239 21.5614C23.6628 22.5225 22.3592 23.0625 21 23.0625C19.6408 23.0625 18.3372 22.5225 17.3761 21.5614C16.415 20.6003 15.875 19.2967 15.875 17.9375C15.875 16.5783 16.415 15.2747 17.3761 14.3136C18.3372 13.3525 19.6408 12.8125 21 12.8125C22.3592 12.8125 23.6628 13.3525 24.6239 14.3136C25.585 15.2747 26.125 16.5783 26.125 17.9375V17.9375ZM33.4102 20.5154C33.6939 20.0031 34.1444 19.6034 34.6869 19.3829C35.2294 19.1624 35.831 19.1343 36.3917 19.3033L37.3103 19.5801L37.5563 19.6621C38.3173 19.9405 38.9886 20.4199 39.4989 21.0493C40.0092 21.6787 40.3395 22.4347 40.4545 23.2367C40.835 25.8864 39.9843 28.9844 37.933 32.5373C35.8868 36.0813 33.6344 38.3645 31.1552 39.3638C30.3586 39.6849 29.4866 39.7704 28.6428 39.6103C27.799 39.4502 27.0189 39.0511 26.3953 38.4606L25.7009 37.802L25.5446 37.6406C25.1584 37.2048 24.9321 36.6506 24.903 36.069C24.8739 35.4875 25.0437 34.9134 25.3844 34.4413L27.1231 32.0325L27.2397 31.8865C27.4839 31.6098 27.8026 31.4092 28.1577 31.3088C28.5128 31.2084 28.8893 31.2123 29.2423 31.3202L31.8701 32.1235L31.938 32.1363H31.9931C32.307 32.1017 32.9451 31.4675 33.7292 30.1094C34.6005 28.6001 34.7798 27.7173 34.5403 27.4892L33.2039 26.2438L33.0335 26.0734C32.6081 25.6124 32.3276 25.0365 32.2269 24.4173C32.1262 23.7982 32.2098 23.1631 32.4672 22.591L33.3154 20.7063L33.4102 20.5154V20.5154Z" fill="#272727"/>
</svg>
