<svg width="72" height="72" viewBox="0 0 72 72" fill="none" xmlns="http://www.w3.org/2000/svg">
<path fill-rule="evenodd" clip-rule="evenodd" d="M36 3C17.775 3 3 17.775 3 36C3 54.225 17.775 69 36 69C54.225 69 69 54.225 69 36C69 17.775 54.225 3 36 3ZM39 48C39 48.7957 38.6839 49.5587 38.1213 50.1213C37.5587 50.6839 36.7957 51 36 51C35.2043 51 34.4413 50.6839 33.8787 50.1213C33.3161 49.5587 33 48.7957 33 48V39H24C23.2044 39 22.4413 38.6839 21.8787 38.1213C21.3161 37.5587 21 36.7957 21 36C21 35.2043 21.3161 34.4413 21.8787 33.8787C22.4413 33.3161 23.2044 33 24 33H33V24C33 23.2044 33.3161 22.4413 33.8787 21.8787C34.4413 21.3161 35.2043 21 36 21C36.7957 21 37.5587 21.3161 38.1213 21.8787C38.6839 22.4413 39 23.2044 39 24V33H48C48.7957 33 49.5587 33.3161 50.1213 33.8787C50.6839 34.4413 51 35.2043 51 36C51 36.7957 50.6839 37.5587 50.1213 38.1213C49.5587 38.6839 48.7957 39 48 39H39V48Z" fill="black"/>
</svg>
