<svg width="68" height="68" viewBox="0 0 68 68" fill="none" xmlns="http://www.w3.org/2000/svg">
<path fill-rule="evenodd" clip-rule="evenodd" d="M34 2.83337C16.7875 2.83337 2.83331 16.7875 2.83331 34C2.83331 51.2125 16.7875 65.1667 34 65.1667C51.2125 65.1667 65.1666 51.2125 65.1666 34C65.1666 16.7875 51.2125 2.83337 34 2.83337ZM22.6666 31.1667C21.9152 31.1667 21.1945 31.4652 20.6632 31.9966C20.1318 32.5279 19.8333 33.2486 19.8333 34C19.8333 34.7515 20.1318 35.4722 20.6632 36.0035C21.1945 36.5349 21.9152 36.8334 22.6666 36.8334H45.3333C46.0848 36.8334 46.8054 36.5349 47.3368 36.0035C47.8681 35.4722 48.1666 34.7515 48.1666 34C48.1666 33.2486 47.8681 32.5279 47.3368 31.9966C46.8054 31.4652 46.0848 31.1667 45.3333 31.1667H22.6666Z" fill="black"/>
</svg>
