<svg width="21" height="21" viewBox="0 0 21 21" fill="none" xmlns="http://www.w3.org/2000/svg">
<g clip-path="url(#clip0_366_8474)">
<path d="M3.75986 19.9813C3.65748 20.5641 4.23236 21.0195 4.73898 20.7596L10.5009 17.7986L16.2614 20.7596C16.768 21.0195 17.3429 20.5641 17.2405 19.9826L16.1512 13.7745L20.7738 9.36976C21.2069 8.95763 20.9838 8.20426 20.4037 8.12289L13.975 7.20939L11.1085 1.5302C11.0539 1.41508 10.9678 1.31781 10.8601 1.24971C10.7524 1.1816 10.6276 1.14545 10.5002 1.14545C10.3728 1.14545 10.248 1.1816 10.1403 1.24971C10.0326 1.31781 9.94646 1.41508 9.89186 1.5302L7.02536 7.2107L0.596733 8.1242C0.0179201 8.20557 -0.206517 8.95895 0.225295 9.37107L4.84923 13.7758L3.75986 19.9839V19.9813ZM10.1977 16.3496L5.3598 18.8355L6.27067 13.6419C6.29201 13.5224 6.28366 13.3994 6.24636 13.2839C6.20905 13.1683 6.14394 13.0637 6.05673 12.9791L2.24261 9.34351L7.56086 8.58751C7.67098 8.57088 7.77544 8.5278 7.86527 8.46197C7.9551 8.39614 8.02764 8.30951 8.07667 8.20951L10.4982 3.40839L12.9224 8.20951C12.9714 8.30951 13.044 8.39614 13.1338 8.46197C13.2237 8.5278 13.3281 8.57088 13.4382 8.58751L18.7565 9.3422L14.9424 12.9778C14.8549 13.0625 14.7897 13.1673 14.7524 13.2832C14.7151 13.399 14.7069 13.5222 14.7284 13.6419L15.6393 18.8355L10.8014 16.3496C10.7079 16.3014 10.6041 16.2762 10.4989 16.2762C10.3936 16.2762 10.2899 16.3014 10.1964 16.3496H10.1977Z" fill="url(#paint0_linear_366_8474)"/>
</g>
<defs>
<linearGradient id="paint0_linear_366_8474" x1="-262.074" y1="418.221" x2="-226.335" y2="438.829" gradientUnits="userSpaceOnUse">
<stop stop-color="#0575E6"/>
<stop offset="1" stop-color="#00F260"/>
</linearGradient>
<clipPath id="clip0_366_8474">
<rect width="21" height="21" fill="white"/>
</clipPath>
</defs>
</svg>
