<svg width="76" height="76" viewBox="0 0 76 76" fill="none" xmlns="http://www.w3.org/2000/svg">
<path d="M51.0615 37.2922C55.3184 37.2922 58.7425 33.8588 58.7425 29.6283C58.7425 25.3979 55.3184 21.9645 51.0615 21.9645C46.8047 21.9645 43.3498 25.3979 43.3498 29.6283C43.3498 33.8588 46.8047 37.2922 51.0615 37.2922ZM27.9263 34.2267C33.0469 34.2267 37.1495 30.1188 37.1495 25.03C37.1495 19.9412 33.0469 15.8334 27.9263 15.8334C22.8056 15.8334 18.6721 19.9412 18.6721 25.03C18.6721 30.1188 22.8056 34.2267 27.9263 34.2267ZM51.0615 43.4233C45.4165 43.4233 34.0957 46.2436 34.0957 51.8535V58.751H68.0274V51.8535C68.0274 46.2436 56.7066 43.4233 51.0615 43.4233ZM27.9263 40.3577C20.7389 40.3577 6.33331 43.9444 6.33331 51.0872V58.751H27.9263V51.8535C27.9263 49.2478 28.9442 44.6802 35.237 41.2161C32.5533 40.6643 29.9622 40.3577 27.9263 40.3577Z" fill="url(#paint0_linear_335_8404)"/>
<defs>
<linearGradient id="paint0_linear_335_8404" x1="-67.6997" y1="117.226" x2="-6.1044" y2="179.391" gradientUnits="userSpaceOnUse">
<stop stop-color="#00F260"/>
<stop offset="1" stop-color="#0575E6"/>
</linearGradient>
</defs>
</svg>
