<svg width="47" height="41" viewBox="0 0 47 41" fill="none" xmlns="http://www.w3.org/2000/svg">
<g clip-path="url(#clip0_461_12735)">
<path d="M31.7917 10.8906C31.7917 11.2707 31.6653 11.6423 31.4283 11.9584C31.1914 12.2744 30.8546 12.5207 30.4606 12.6662C30.0666 12.8117 29.6331 12.8497 29.2148 12.7756C28.7966 12.7014 28.4123 12.5184 28.1108 12.2496C27.8092 11.9808 27.6039 11.6384 27.5207 11.2656C27.4375 10.8928 27.4802 10.5063 27.6434 10.1552C27.8066 9.80398 28.0829 9.50382 28.4375 9.29265C28.7921 9.08147 29.209 8.96875 29.6355 8.96875C30.2074 8.96875 30.7558 9.17123 31.1602 9.53166C31.5646 9.89208 31.7917 10.3809 31.7917 10.8906ZM22.6456 20.8043C22.5033 20.6939 22.3374 20.6103 22.1579 20.5585C21.9784 20.5066 21.7891 20.4876 21.6011 20.5026C21.4132 20.5175 21.2306 20.5661 21.0643 20.6455C20.8979 20.7249 20.7513 20.8334 20.6331 20.9645L13.4456 28.652C13.3218 28.7788 13.228 28.9267 13.1698 29.0867C13.1117 29.2466 13.0903 29.4154 13.1071 29.5829C13.1239 29.7504 13.1784 29.9132 13.2675 30.0614C13.3565 30.2097 13.4782 30.3404 13.6253 30.4457C13.7677 30.5561 13.9336 30.6397 14.113 30.6915C14.2925 30.7434 14.4819 30.7624 14.6698 30.7474C14.8578 30.7325 15.0404 30.6839 15.2067 30.6045C15.373 30.5251 15.5197 30.4167 15.6378 30.2856L22.8253 22.5981C22.9492 22.4712 23.043 22.3233 23.1011 22.1633C23.1593 22.0034 23.1806 21.8346 23.1639 21.6671C23.1471 21.4996 23.0925 21.3368 23.0035 21.1886C22.9144 21.0403 22.7927 20.9096 22.6456 20.8043V20.8043ZM43.2917 12.8125C43.2939 13.0254 43.2358 13.2354 43.1227 13.423C43.0096 13.6106 42.8453 13.7697 42.6449 13.8855L38.9792 16.0637V19.2188C38.9697 23.6337 36.9978 27.8653 33.4953 30.9871C29.9928 34.109 25.2451 35.8665 20.2917 35.875H1.60424C1.3341 35.8737 1.06986 35.8045 0.8418 35.6754C0.613743 35.5464 0.431101 35.3626 0.314813 35.1453C0.198524 34.928 0.153296 34.6859 0.184312 34.4467C0.215328 34.2075 0.321333 33.9809 0.490176 33.793L17.4167 14.9266V12.1719C17.4174 9.8779 18.3387 7.65982 20.0143 5.91853C21.6898 4.17724 24.0089 3.02764 26.5525 2.67752C29.096 2.3274 31.6962 2.79985 33.8831 4.00949C36.0699 5.21912 37.6991 7.08613 38.4761 9.27305L42.6449 11.7395C42.8453 11.8553 43.0096 12.0145 43.1227 12.202C43.2358 12.3896 43.2939 12.5996 43.2917 12.8125V12.8125ZM39.2667 12.8125L36.4456 11.1309C36.1514 10.9601 35.9398 10.6972 35.8527 10.3941C35.3708 8.7325 34.2252 7.28471 32.6308 6.32246C31.0363 5.36021 29.1027 4.94966 27.1928 5.16786C25.2829 5.38605 23.528 6.21799 22.2574 7.50755C20.9867 8.79711 20.2878 10.4556 20.2917 12.1719V15.375C20.294 15.6677 20.1793 15.9515 19.9683 16.1758L4.58705 33.3125H20.2917C24.484 33.3083 28.5032 31.822 31.4676 29.1799C34.432 26.5377 36.0995 22.9553 36.1042 19.2188V15.375C36.102 15.1621 36.1602 14.9521 36.2733 14.7645C36.3863 14.577 36.5507 14.4178 36.7511 14.302L39.2667 12.8125Z" fill="#272727"/>
</g>
<defs>
<clipPath id="clip0_461_12735">
<rect width="46" height="41" fill="white" transform="translate(0.166748)"/>
</clipPath>
</defs>
</svg>
