<svg width="47" height="41" viewBox="0 0 47 41" fill="none" xmlns="http://www.w3.org/2000/svg">
<path d="M11.2982 38.4375H34.4218C36.8885 38.4375 38.8867 36.654 38.8867 34.4554V17.7171C42.9318 17.4583 45.3152 13.4224 43.1273 10.2731L41.8767 8.47419C41.3859 7.76745 40.7008 7.18417 39.8862 6.77966C39.0716 6.37515 38.1545 6.16282 37.222 6.16281H33.841V4.92513C33.8414 4.61498 33.7732 4.30781 33.6403 4.02118C33.5074 3.73455 33.3124 3.47408 33.0665 3.25465C32.8206 3.03523 32.5286 2.86116 32.2071 2.74239C31.8857 2.62363 31.5411 2.5625 31.1932 2.5625C29.5264 2.5625 27.9278 3.15267 26.7492 4.20318C25.5706 5.25369 24.9084 6.67848 24.9084 8.16413V15.6876C21.7574 16.0028 19.3597 17.3584 17.6002 19.2444C15.6222 21.361 14.4664 24.1106 13.7764 26.7371C13.1835 29.1066 12.8465 31.5213 12.7702 33.948C12.7414 34.6963 12.7414 35.3523 12.7472 35.875H11.3011C10.381 35.8751 9.48091 35.6356 8.71153 35.1858C7.94215 34.7361 7.337 34.0957 6.97047 33.3435C6.60395 32.5913 6.49203 31.7601 6.64847 30.9519C6.80492 30.1438 7.22291 29.394 7.85105 28.7948L10.1424 26.6039C11.7563 25.0612 12.6354 23.0206 12.5946 20.9117C12.5539 18.8028 11.5964 16.7903 9.92393 15.2981L7.67568 13.2917C7.54307 13.1693 7.38445 13.0717 7.20907 13.0046C7.03369 12.9374 6.84506 12.9021 6.65419 12.9006C6.46332 12.8991 6.27403 12.9315 6.09737 12.9959C5.9207 13.0604 5.7602 13.1555 5.62523 13.2758C5.49026 13.3961 5.38352 13.5392 5.31125 13.6966C5.23897 13.8541 5.2026 14.0228 5.20425 14.1929C5.20591 14.363 5.24557 14.5312 5.32091 14.6875C5.39624 14.8438 5.50576 14.9852 5.64305 15.1034L7.89418 17.1098C9.04063 18.132 9.697 19.511 9.72489 20.9561C9.75277 22.4012 9.15001 23.7995 8.04368 24.8562L5.74943 27.0472C4.74086 28.0117 4.07009 29.2176 3.81939 30.517C3.5687 31.8164 3.74898 33.1528 4.33814 34.3622C4.92729 35.5716 5.89968 36.6014 7.13603 37.3253C8.37238 38.0493 9.81891 38.4358 11.2982 38.4375V38.4375ZM30.966 5.13269V7.44406C30.966 7.78387 31.1175 8.10976 31.3871 8.35004C31.6567 8.59032 32.0223 8.72531 32.4035 8.72531H37.222C38.1219 8.72531 38.9585 9.14044 39.4358 9.82463L40.6864 11.6235C40.9317 11.9749 41.067 12.3785 41.0782 12.7922C41.0894 13.206 40.9762 13.6149 40.7504 13.9765C40.5245 14.3381 40.1941 14.6392 39.7936 14.8486C39.3931 15.0581 38.937 15.1681 38.4727 15.1674H37.452C37.0708 15.1674 36.7052 15.3024 36.4356 15.5427C36.166 15.783 36.0145 16.1089 36.0145 16.4487V34.4554C36.0145 34.8319 35.8467 35.193 35.548 35.4592C35.2493 35.7254 34.8442 35.875 34.4218 35.875H32.8319V34.4554C32.8323 33.5779 32.6387 32.7089 32.2622 31.8981C31.8857 31.0873 31.3337 30.3505 30.6377 29.7299C29.9416 29.1093 29.1153 28.617 28.2057 28.2811C27.2962 27.9453 26.3213 27.7724 25.3368 27.7724H22.8126C22.4313 27.7724 22.0657 27.9074 21.7961 28.1476C21.5265 28.3879 21.3751 28.7138 21.3751 29.0536C21.3751 29.3934 21.5265 29.7193 21.7961 29.9596C22.0657 30.1999 22.4313 30.3349 22.8126 30.3349H25.3368C27.8869 30.3349 29.9569 32.1799 29.9569 34.4554V35.875H15.6222C15.6136 35.3804 15.6164 34.7552 15.6423 34.0326C15.7113 32.1824 15.9442 29.7404 16.5767 27.3188C17.2149 24.8793 18.2356 22.5654 19.8082 20.8844C21.3348 19.2495 23.4019 18.1809 26.3459 18.1809C26.7272 18.1809 27.0928 18.0459 27.3624 17.8057C27.632 17.5654 27.7834 17.2395 27.7834 16.8997V8.16413C27.7834 6.55488 29.1893 5.23519 30.966 5.13269V5.13269Z" fill="#272727"/>
</svg>
