<svg width="55" height="55" viewBox="0 0 55 55" fill="none" xmlns="http://www.w3.org/2000/svg">
<g clip-path="url(#clip0_200_8985)">
<path d="M54.4982 44.1857L37.8126 27.5001L54.4982 10.8145C54.8179 10.4908 54.9972 10.0542 54.9972 9.59931C54.9972 9.14439 54.8179 8.70779 54.4982 8.38416L46.616 0.501969C46.4567 0.342013 46.2673 0.215095 46.0588 0.128494C45.8502 0.0418934 45.6267 -0.00268555 45.4009 -0.00268555C45.1751 -0.00268555 44.9515 0.0418934 44.743 0.128494C44.5345 0.215095 44.3451 0.342013 44.1857 0.501969L27.5001 17.1876L10.8145 0.501969C10.4922 0.179753 10.0551 -0.00125754 9.59931 -0.00125754C9.14356 -0.00125754 8.70647 0.179753 8.38416 0.501969L0.501969 8.38416C0.342013 8.54352 0.215095 8.7329 0.128494 8.94142C0.0418934 9.14995 -0.00268555 9.37352 -0.00268555 9.59931C-0.00268555 9.82511 0.0418934 10.0487 0.128494 10.2572C0.215095 10.4657 0.342013 10.6551 0.501969 10.8145L17.1876 27.5001L0.501969 44.1857C0.179753 44.508 -0.00125754 44.9451 -0.00125754 45.4009C-0.00125754 45.8566 0.179753 46.2937 0.501969 46.616L8.38416 54.4982C8.54352 54.6582 8.7329 54.7851 8.94142 54.8717C9.14995 54.9583 9.37352 55.0029 9.59931 55.0029C9.82511 55.0029 10.0487 54.9583 10.2572 54.8717C10.4657 54.7851 10.6551 54.6582 10.8145 54.4982L27.5001 37.8126L44.1857 54.4982C44.508 54.8204 44.9451 55.0014 45.4009 55.0014C45.8566 55.0014 46.2937 54.8204 46.616 54.4982L54.4982 46.616C54.6582 46.4567 54.7851 46.2673 54.8717 46.0588C54.9583 45.8502 55.0029 45.6267 55.0029 45.4009C55.0029 45.1751 54.9583 44.9515 54.8717 44.743C54.7851 44.5345 54.6582 44.3451 54.4982 44.1857Z" fill="black"/>
</g>
<defs>
<clipPath id="clip0_200_8985">
<rect width="55" height="55" fill="white"/>
</clipPath>
</defs>
</svg>
