<svg width="33" height="33" viewBox="0 0 33 33" fill="none" xmlns="http://www.w3.org/2000/svg">
<path d="M30.4034 8.89351L20.0909 3.22163C19.9386 3.13786 19.7676 3.09393 19.5938 3.09393C19.42 3.09393 19.249 3.13786 19.0967 3.22163L8.78423 8.89351C8.62255 8.98253 8.48771 9.11331 8.39381 9.27222C8.2999 9.43112 8.25037 9.61231 8.25037 9.79688C8.25037 9.98146 8.2999 10.1626 8.39381 10.3215C8.48771 10.4804 8.62255 10.6112 8.78423 10.7003L18.5625 16.0782V27.1322L15.4317 25.41L14.4375 27.2157L19.0967 29.7784C19.249 29.8623 19.42 29.9064 19.5938 29.9064C19.7676 29.9064 19.9386 29.8623 20.0909 29.7784L30.4034 24.1065C30.5651 24.0175 30.7 23.8868 30.794 23.7279C30.8879 23.569 30.9375 23.3877 30.9375 23.2031V9.79688C30.9375 9.61228 30.8879 9.43106 30.794 9.27216C30.7 9.11325 30.5651 8.98249 30.4034 8.89351ZM19.5938 5.30269L27.7665 9.79688L19.5938 14.2911L11.4211 9.79688L19.5938 5.30269ZM28.875 22.5937L20.625 27.1312V16.0772L28.875 11.5397V22.5937Z" fill="white"/>
<path d="M10.3125 16.5H2.0625V14.4375H10.3125V16.5Z" fill="white"/>
<path d="M12.375 24.75H4.125V22.6875H12.375V24.75Z" fill="white"/>
<path d="M14.4375 20.625H6.1875V18.5625H14.4375V20.625Z" fill="white"/>
</svg>
