<svg width="41" height="41" viewBox="0 0 41 41" fill="none" xmlns="http://www.w3.org/2000/svg">
<path d="M37.7738 11.0495L24.9613 4.00265C24.7721 3.89857 24.5597 3.84399 24.3437 3.84399C24.1278 3.84399 23.9154 3.89857 23.7262 4.00265L10.9137 11.0495C10.7128 11.1601 10.5453 11.3226 10.4286 11.52C10.3119 11.7175 10.2504 11.9426 10.2504 12.1719C10.2504 12.4012 10.3119 12.6263 10.4286 12.8238C10.5453 13.0212 10.7128 13.1837 10.9137 13.2943L23.0625 19.976V33.7097L19.1726 31.57L17.9375 33.8135L23.7262 36.9974C23.9153 37.1017 24.1278 37.1564 24.3437 37.1564C24.5597 37.1564 24.7722 37.1017 24.9613 36.9974L37.7738 29.9505C37.9748 29.84 38.1424 29.6775 38.2591 29.4801C38.3759 29.2827 38.4375 29.0575 38.4375 28.8281V12.1719C38.4375 11.9425 38.3759 11.7174 38.2591 11.52C38.1424 11.3225 37.9748 11.1601 37.7738 11.0495ZM24.3437 6.58821L34.4977 12.1719L24.3437 17.7556L14.1898 12.1719L24.3437 6.58821ZM35.875 28.0709L25.625 33.7084V19.9747L35.875 14.3372V28.0709Z" fill="#272727"/>
<path d="M12.8125 20.5H2.5625V17.9375H12.8125V20.5Z" fill="#272727"/>
<path d="M15.375 30.75H5.125V28.1875H15.375V30.75Z" fill="#272727"/>
<path d="M17.9375 25.625H7.6875V23.0625H17.9375V25.625Z" fill="#272727"/>
</svg>
