<svg width="46" height="41" viewBox="0 0 46 41" fill="none" xmlns="http://www.w3.org/2000/svg">
<path d="M27.3123 5.125C26.9311 5.125 26.5654 5.25999 26.2958 5.50027C26.0263 5.74055 25.8748 6.06644 25.8748 6.40625V8.96875C25.8748 9.30856 26.0263 9.63445 26.2958 9.87473C26.5654 10.115 26.9311 10.25 27.3123 10.25C27.6936 10.25 28.0592 10.115 28.3288 9.87473C28.5984 9.63445 28.7498 9.30856 28.7498 8.96875C28.7498 8.62894 28.9013 8.30305 29.1708 8.06277C29.4404 7.82249 29.8061 7.6875 30.1873 7.6875C30.5686 7.6875 30.9342 7.82249 31.2038 8.06277C31.4734 8.30305 31.6248 8.62894 31.6248 8.96875C31.6251 9.60241 31.4497 10.2263 31.1141 10.7849C30.7785 11.3435 30.2932 11.8195 29.7013 12.1706C29.1094 12.5216 28.4293 12.7367 27.7216 12.7969C27.0139 12.857 26.3004 12.7603 25.6448 12.5152C25.3909 14.5436 24.8008 16.5272 23.8939 18.4013C22.7123 20.8075 21.1598 22.5244 19.7597 23.9158C18.7592 24.9126 18.1123 26.3425 17.7299 28.044C17.3476 29.7353 17.2498 31.5828 17.2498 33.3125C17.2498 34.0889 16.9336 35.0268 16.3586 35.875H28.5054C28.2062 35.1263 27.6548 34.4783 26.9266 34.0196C26.1984 33.5609 25.329 33.3139 24.4373 33.3125H22.9998C22.6186 33.3125 22.2529 33.1775 21.9833 32.9372C21.7138 32.697 21.5623 32.3711 21.5623 32.0312C21.5623 31.6914 21.7138 31.3655 21.9833 31.1253C22.2529 30.885 22.6186 30.75 22.9998 30.75H24.4373C24.9289 30.75 25.4091 30.7936 25.8748 30.8781V26.9062C25.8748 26.5664 26.0263 26.2405 26.2958 26.0003C26.5654 25.76 26.9311 25.625 27.3123 25.625C27.6936 25.625 28.0592 25.76 28.3288 26.0003C28.5984 26.2405 28.7498 26.5664 28.7498 26.9062V32.0312C30.1298 32.9538 31.1246 34.3119 31.4811 35.875H37.1304C36.833 35.1253 36.2821 34.4762 35.5535 34.0173C34.8249 33.5583 33.9545 33.3121 33.0623 33.3125C32.6811 33.3125 32.3154 33.1775 32.0458 32.9372C31.7763 32.697 31.6248 32.3711 31.6248 32.0312V14.0938C31.6248 13.7539 31.7763 13.4281 32.0458 13.1878C32.3154 12.9475 32.6811 12.8125 33.0623 12.8125H35.9373C36.3186 12.8125 36.6842 12.6775 36.9538 12.4372C37.2234 12.1969 37.3748 11.8711 37.3748 11.5312V9.13787C37.3749 8.91645 37.3105 8.69879 37.1881 8.50613C37.0657 8.31347 36.8893 8.15237 36.6762 8.03856L31.5673 5.30694C31.344 5.1878 31.0887 5.12492 30.8284 5.125H27.3123ZM11.4998 35.875C12.4026 35.875 13.0983 35.4855 13.6129 34.9141C14.1592 34.3016 14.3748 33.6149 14.3748 33.3125C14.3748 31.5188 14.4754 29.4764 14.9096 27.5392C15.3437 25.6173 16.1372 23.6826 17.6149 22.2092C18.9288 20.9023 20.2542 19.4161 21.2662 17.3686C22.2696 15.3263 22.9998 12.6536 22.9998 8.96875V6.40625C22.9998 5.38682 23.4542 4.40915 24.2629 3.68831C25.0717 2.96747 26.1686 2.5625 27.3123 2.5625H30.8284C31.6104 2.56257 32.3776 2.75212 33.0479 3.11087L38.1568 5.8425C38.7952 6.18403 39.3234 6.66704 39.6902 7.24452C40.057 7.822 40.2498 8.47428 40.2498 9.13787V11.5312C40.2498 12.5507 39.7955 13.5283 38.9867 14.2492C38.178 14.97 37.0811 15.375 35.9373 15.375H34.4998V30.8781C36.1233 31.1735 37.5824 31.9597 38.6302 33.1038C39.678 34.2478 40.2501 35.6794 40.2498 37.1562C40.2498 37.4961 40.0984 37.822 39.8288 38.0622C39.5592 38.3025 39.1936 38.4375 38.8123 38.4375H10.7811C9.08448 38.438 7.43272 37.952 6.06984 37.0514C4.70697 36.1508 3.70528 34.8833 3.21277 33.4363C2.72027 31.9892 2.76308 30.4393 3.33487 29.0156C3.90667 27.5919 4.97712 26.3699 6.38806 25.5302C6.54484 25.4331 6.72173 25.3649 6.90841 25.3294C7.0951 25.2939 7.28784 25.292 7.4754 25.3236C7.66295 25.3552 7.84155 25.4198 8.00079 25.5137C8.16003 25.6075 8.29671 25.7286 8.40285 25.87C8.509 26.0114 8.58248 26.1703 8.61902 26.3372C8.65556 26.5042 8.65443 26.676 8.61567 26.8426C8.57692 27.0092 8.50133 27.1672 8.39332 27.3075C8.28531 27.4478 8.14703 27.5675 7.98656 27.6596C7.08794 28.1937 6.406 28.9713 6.04157 29.8775C5.67714 30.7838 5.64958 31.7705 5.96295 32.6917C6.27632 33.613 6.91399 34.4199 7.78168 34.9932C8.64936 35.5664 9.70099 35.8756 10.7811 35.875H11.4998Z" fill="#272727"/>
</svg>
