<svg width="33" height="33" viewBox="0 0 33 33" fill="none" xmlns="http://www.w3.org/2000/svg">
<path d="M27.5 11H23.8334V6.41667C23.8334 6.17355 23.7368 5.94039 23.5649 5.76849C23.393 5.59658 23.1598 5.5 22.9167 5.5H2.75004C2.50693 5.5 2.27377 5.59658 2.10186 5.76849C1.92995 5.94039 1.83337 6.17355 1.83337 6.41667V22.9167C1.83337 23.1598 1.92995 23.3929 2.10186 23.5648C2.27377 23.7368 2.50693 23.8333 2.75004 23.8333H3.66671V7.33333H22V18.0583C22.4674 17.9391 22.9477 17.8775 23.43 17.875H23.8334V12.8333H27.5C27.9863 12.8333 28.4526 13.0265 28.7964 13.3703C29.1402 13.7141 29.3334 14.1804 29.3334 14.6667V15.5833H25.6667V17.4167H29.3334V22H27.1334C26.8118 21.253 26.2783 20.6166 25.599 20.1694C24.9197 19.7222 24.1242 19.4839 23.3109 19.4839C22.4976 19.4839 21.7021 19.7222 21.0227 20.1694C20.3434 20.6166 19.81 21.253 19.4884 22H13.2275C12.9121 21.2475 12.3805 20.6055 11.7001 20.1552C11.0197 19.7048 10.221 19.4664 9.40504 19.47C8.62979 19.4871 7.87608 19.7283 7.23498 20.1646C6.59388 20.6008 6.09281 21.2133 5.79231 21.9282C5.49182 22.643 5.40476 23.4296 5.54166 24.1928C5.67855 24.9561 6.03354 25.6634 6.56374 26.2292C7.09393 26.7951 7.77665 27.1953 8.52939 27.3815C9.28213 27.5677 10.0727 27.532 10.8056 27.2786C11.5384 27.0252 12.1822 26.565 12.6592 25.9537C13.1362 25.3423 13.4259 24.6058 13.4934 23.8333H19.25C19.3665 24.8359 19.8474 25.7608 20.6011 26.432C21.3549 27.1033 22.329 27.4742 23.3384 27.4742C24.3477 27.4742 25.3219 27.1033 26.0756 26.432C26.8294 25.7608 27.3102 24.8359 27.4267 23.8333H30.25C30.4932 23.8333 30.7263 23.7368 30.8982 23.5648C31.0701 23.3929 31.1667 23.1598 31.1667 22.9167V14.6667C31.1667 13.6942 30.7804 12.7616 30.0928 12.0739C29.4051 11.3863 28.4725 11 27.5 11ZM9.40504 25.6667C9.10726 25.686 8.80868 25.644 8.52776 25.5434C8.24685 25.4427 7.98957 25.2855 7.77184 25.0814C7.5541 24.8774 7.38055 24.6308 7.2619 24.357C7.14325 24.0832 7.08203 23.788 7.08203 23.4896C7.08203 23.1912 7.14325 22.8959 7.2619 22.6221C7.38055 22.3483 7.5541 22.1018 7.77184 21.8977C7.98957 21.6937 8.24685 21.5364 8.52776 21.4358C8.80868 21.3351 9.10726 21.2932 9.40504 21.3125C9.70282 21.2932 10.0014 21.3351 10.2823 21.4358C10.5632 21.5364 10.8205 21.6937 11.0382 21.8977C11.256 22.1018 11.4295 22.3483 11.5482 22.6221C11.6668 22.8959 11.728 23.1912 11.728 23.4896C11.728 23.788 11.6668 24.0832 11.5482 24.357C11.4295 24.6308 11.256 24.8774 11.0382 25.0814C10.8205 25.2855 10.5632 25.4427 10.2823 25.5434C10.0014 25.644 9.70282 25.686 9.40504 25.6667ZM23.3109 25.6667C22.8843 25.6451 22.4735 25.4989 22.1293 25.246C21.7851 24.9932 21.5227 24.6449 21.3746 24.2443C21.2265 23.8437 21.1992 23.4085 21.2962 22.9926C21.3931 22.5766 21.61 22.1983 21.9199 21.9045C22.2299 21.6107 22.6192 21.4143 23.0397 21.3397C23.4603 21.265 23.8934 21.3155 24.2855 21.4848C24.6776 21.654 25.0114 21.9346 25.2456 22.2918C25.4797 22.649 25.6038 23.0671 25.6025 23.4942C25.5857 24.0858 25.3351 24.6467 24.9056 25.0539C24.476 25.4611 23.9026 25.6815 23.3109 25.6667Z" fill="white"/>
</svg>
