<svg width="42" height="41" viewBox="0 0 42 41" fill="none" xmlns="http://www.w3.org/2000/svg">
<path d="M34.6667 13.6667H30.1111V7.97226C30.1111 7.67021 29.9911 7.38053 29.7775 7.16695C29.564 6.95336 29.2743 6.83337 28.9722 6.83337H3.91667C3.61462 6.83337 3.32493 6.95336 3.11135 7.16695C2.89777 7.38053 2.77778 7.67021 2.77778 7.97226V28.4723C2.77778 28.7743 2.89777 29.064 3.11135 29.2776C3.32493 29.4912 3.61462 29.6112 3.91667 29.6112H5.05556V9.11115H27.8333V22.4362C28.414 22.288 29.0107 22.2115 29.61 22.2084H30.1111V15.9445H34.6667C35.2708 15.9445 35.8501 16.1845 36.2773 16.6116C36.7045 17.0388 36.9444 17.6182 36.9444 18.2223V19.3612H32.3889V21.6389H36.9444V27.3334H34.2111C33.8116 26.4053 33.1488 25.6146 32.3048 25.059C31.4607 24.5034 30.4724 24.2073 29.4619 24.2073C28.4515 24.2073 27.4632 24.5034 26.6191 25.059C25.7751 25.6146 25.1123 26.4053 24.7128 27.3334H16.9342C16.5422 26.3985 15.8818 25.6008 15.0364 25.0413C14.191 24.4818 13.1987 24.1855 12.185 24.19C11.2218 24.2113 10.2854 24.511 9.48886 25.053C8.69234 25.5949 8.0698 26.356 7.69646 27.2441C7.32312 28.1323 7.21496 29.1095 7.38504 30.0578C7.55512 31.0061 7.99617 31.8848 8.6549 32.5879C9.31362 33.2909 10.1618 33.7881 11.0971 34.0195C12.0323 34.2509 13.0145 34.2065 13.925 33.8917C14.8356 33.5768 15.6355 33.0051 16.2281 32.2455C16.8207 31.4859 17.1806 30.5709 17.2644 29.6112H24.4167C24.5614 30.8568 25.1588 32.0058 26.0953 32.8398C27.0318 33.6738 28.2421 34.1346 29.4961 34.1346C30.7501 34.1346 31.9604 33.6738 32.8969 32.8398C33.8334 32.0058 34.4308 30.8568 34.5756 29.6112H38.0833C38.3854 29.6112 38.6751 29.4912 38.8886 29.2776C39.1022 29.064 39.2222 28.7743 39.2222 28.4723V18.2223C39.2222 17.0141 38.7423 15.8553 37.8879 15.001C37.0336 14.1467 35.8749 13.6667 34.6667 13.6667V13.6667ZM12.185 31.8889C11.815 31.9129 11.4441 31.8608 11.0951 31.7358C10.746 31.6107 10.4264 31.4154 10.1559 31.1618C9.88535 30.9083 9.66972 30.602 9.52231 30.2618C9.3749 29.9216 9.29884 29.5548 9.29884 29.1841C9.29884 28.8133 9.3749 28.4465 9.52231 28.1063C9.66972 27.7662 9.88535 27.4598 10.1559 27.2063C10.4264 26.9528 10.746 26.7574 11.0951 26.6324C11.4441 26.5073 11.815 26.4552 12.185 26.4792C12.555 26.4552 12.9259 26.5073 13.2749 26.6324C13.624 26.7574 13.9436 26.9528 14.2141 27.2063C14.4846 27.4598 14.7003 27.7662 14.8477 28.1063C14.9951 28.4465 15.0712 28.8133 15.0712 29.1841C15.0712 29.5548 14.9951 29.9216 14.8477 30.2618C14.7003 30.602 14.4846 30.9083 14.2141 31.1618C13.9436 31.4154 13.624 31.6107 13.2749 31.7358C12.9259 31.8608 12.555 31.9129 12.185 31.8889V31.8889ZM29.4619 31.8889C28.932 31.8622 28.4216 31.6805 27.9939 31.3663C27.5663 31.0522 27.2403 30.6195 27.0563 30.1218C26.8723 29.6241 26.8384 29.0833 26.9588 28.5666C27.0793 28.0498 27.3487 27.5798 27.7338 27.2147C28.1189 26.8497 28.6026 26.6056 29.1251 26.513C29.6475 26.4203 30.1857 26.4829 30.6729 26.6932C31.16 26.9035 31.5748 27.2522 31.8656 27.696C32.1565 28.1398 32.3107 28.6591 32.3092 29.1898C32.2883 29.9248 31.9769 30.6217 31.4432 31.1276C30.9096 31.6335 30.1971 31.9073 29.4619 31.8889V31.8889Z" fill="#272727"/>
</svg>
