<svg width="47" height="41" viewBox="0 0 47 41" fill="none" xmlns="http://www.w3.org/2000/svg">
<path d="M15.5938 7.6875L16.4031 9.44922C16.9076 10.5447 17.5933 13.2827 17.4352 14.5742C15.4759 15.6505 14.2741 16.7011 13.3469 17.5775C12.2142 16.7613 9.97312 15.375 6.25 15.375H4.8125V16.6562C4.8125 19.1086 5.80581 21.1009 6.16087 21.7812C5.8015 22.4565 4.8125 24.3783 4.8125 26.9062V28.1875H6.25C9.94437 28.1875 12.2127 26.7961 13.3484 25.985C15.0489 27.5469 17.474 29.1933 20.5359 30.4297C20.4007 31.2253 20.2944 32.3362 20.6696 33.6328L20.9398 34.5938H22.0625C23.8364 34.5938 25.3644 33.8083 26.5993 33.1126C27.6098 32.5412 28.0986 32.1414 28.3516 31.9505C34.0685 31.7712 37.7183 29.0229 39.6719 26.3053C41.693 23.4981 42.1875 20.6999 42.1875 20.6999L42.2321 20.3796L42.0984 20.0593C42.0984 20.0593 38.8065 12.0015 29.8796 11.6107C28.9309 10.5857 27.6041 9.73494 25.7468 9.04819C23.5503 8.23844 20.7874 7.6875 17.75 7.6875H15.5938ZM19.7711 10.4102C21.5853 10.5895 23.2815 10.9163 24.6227 11.4108C26.4598 12.0873 27.7392 13.0572 28.0368 13.4928L28.4421 14.0938H29.25C36.4317 14.0938 39.0149 20.1541 39.2234 20.6602C39.1227 21.1304 38.7059 22.9177 37.2468 24.9447C35.5779 27.2612 32.8768 29.4688 27.8125 29.4688H27.2734L26.8695 29.7891C26.8695 29.7891 26.1105 30.3656 25.0726 30.9499C24.5264 31.2561 24.0621 31.3112 23.5 31.5111C23.5575 30.9255 23.5 30.0697 23.5 30.0697L23.8148 28.9486L22.6461 28.5873C19.0869 27.3765 16.0595 25.0946 14.5156 23.5032L13.5266 22.4616L12.4485 23.4225C12.4485 23.4225 10.5338 24.6192 8.04688 25.1843C8.41775 23.6826 8.98988 22.3424 8.98988 22.3424L9.30469 21.7812L8.98988 21.2201C8.98988 21.2201 8.36744 19.7492 8.00231 18.1771C10.6516 18.6986 12.4485 20.14 12.4485 20.14L13.5266 21.1009L14.5156 20.0593C15.8022 18.7639 19.2666 15.5352 24.3539 14.9343L23.9485 12.4115C22.5728 12.5729 21.3725 12.9278 20.2211 13.334C20.1477 12.2577 20.0859 11.3314 19.7711 10.4102V10.4102ZM32.8438 19.2188C32.2719 19.2188 31.7234 19.4212 31.3191 19.7817C30.9147 20.1421 30.6875 20.6309 30.6875 21.1406C30.6875 21.6503 30.9147 22.1392 31.3191 22.4996C31.7234 22.86 32.2719 23.0625 32.8438 23.0625C33.4156 23.0625 33.9641 22.86 34.3684 22.4996C34.7728 22.1392 35 21.6503 35 21.1406C35 20.6309 34.7728 20.1421 34.3684 19.7817C33.9641 19.4212 33.4156 19.2188 32.8438 19.2188Z" fill="#272727"/>
</svg>
