<svg width="56" height="56" viewBox="0 0 56 56" fill="none" xmlns="http://www.w3.org/2000/svg">
<path d="M40.1567 21L29.9367 5.69338C29.4934 5.04005 28.7467 4.71338 28 4.71338C27.2534 4.71338 26.5067 5.04005 26.0634 5.71671L15.8434 21H4.66671C3.38337 21 2.33337 22.05 2.33337 23.3334C2.33337 23.5434 2.35671 23.7534 2.42671 23.9634L8.35337 45.5934C8.89004 47.5534 10.6867 49 12.8334 49H43.1667C45.3134 49 47.11 47.5534 47.67 45.5934L53.5967 23.9634L53.6667 23.3334C53.6667 22.05 52.6167 21 51.3334 21H40.1567ZM21 21L28 10.7334L35 21H21ZM28 39.6667C25.4334 39.6667 23.3334 37.5667 23.3334 35C23.3334 32.4334 25.4334 30.3334 28 30.3334C30.5667 30.3334 32.6667 32.4334 32.6667 35C32.6667 37.5667 30.5667 39.6667 28 39.6667Z" fill="url(#paint0_linear_335_8405)"/>
<defs>
<linearGradient id="paint0_linear_335_8405" x1="-59.2667" y1="109.341" x2="2.97035" y2="159.989" gradientUnits="userSpaceOnUse">
<stop stop-color="#00F260"/>
<stop offset="1" stop-color="#0575E6"/>
</linearGradient>
</defs>
</svg>
