<svg width="47" height="41" viewBox="0 0 47 41" fill="none" xmlns="http://www.w3.org/2000/svg">
<g clip-path="url(#clip0_461_12718)">
<path d="M13.3988 33.4308C11.8483 33.4308 10.3562 32.9037 9.22684 31.9568C8.09746 31.01 7.41589 29.7148 7.32117 28.3354L7.3101 28.0039V25.5371C6.15064 25.5373 5.01133 25.2669 4.00544 24.7529C2.99956 24.239 2.16214 23.4992 1.57646 22.6073C0.990781 21.7155 0.677237 20.7025 0.667007 19.6691C0.656776 18.6357 0.950215 17.6179 1.51815 16.7169C2.08608 15.816 2.90872 15.0632 3.90427 14.5335C4.89983 14.0037 6.03361 13.7155 7.19289 13.6975C8.35217 13.6794 9.49657 13.9321 10.5123 14.4305C11.528 14.9289 12.3797 15.6556 12.9826 16.5383C14.1478 16.0395 15.4116 15.7498 16.7022 15.6858L17.2735 15.67H26.1298L26.6789 15.6838L27.2213 15.7233L27.5025 15.7568L27.7461 15.4272L28.0361 15.076L24.1017 11.5692C22.5518 10.1878 22.3902 8.04073 23.6146 6.49752L23.8427 6.23308L24.1017 5.98048C25.7401 4.52015 28.3483 4.44121 30.0908 5.74959L30.372 5.98048L42.3546 16.6626C43.5683 17.7444 44.4031 19.1173 44.7575 20.6141C45.1119 22.111 44.9707 23.6675 44.351 25.0941C43.7313 26.5208 42.6598 27.7562 41.2669 28.6501C39.8739 29.544 38.2196 30.0579 36.505 30.1292L36.0068 30.1371L35.6039 30.1233L35.5463 30.2496C35.1195 31.0865 34.4612 31.813 33.6333 32.3611C32.8053 32.9092 31.8348 33.261 30.8126 33.3834L30.3875 33.4209L30.0022 33.4308H13.3988V33.4308ZM28.0228 8.07428C27.8269 7.89801 27.5639 7.7937 27.2858 7.78198C27.0077 7.77026 26.7348 7.85198 26.5211 8.01098C26.3074 8.16997 26.1684 8.39467 26.1316 8.64063C26.0948 8.88659 26.1629 9.13589 26.3224 9.33924L26.4508 9.47738L32.668 15.0188L31.2554 16.2857C30.7904 16.7001 30.403 17.1619 30.0974 17.6592L29.8827 18.0381L29.2937 19.1906L27.9254 18.8492C27.4887 18.74 27.0406 18.6712 26.5881 18.6439L26.1276 18.6301H17.2735C15.7236 18.6301 14.3 19.1037 13.1708 19.8931L12.8542 20.1299L12.4888 20.4457L12.2829 20.643L12.0372 20.9074L11.7693 21.237L11.6763 21.3633C11.5855 21.4876 11.4991 21.6179 11.4217 21.7501L11.2932 21.9711L11.156 22.2415L11.0807 22.4072L10.9678 22.6875L10.846 23.0506C10.7891 23.2437 10.7433 23.4394 10.7087 23.6367L10.6844 23.8005L10.6445 24.1735L10.6312 24.5504V28.0039C10.6312 29.2826 11.7206 30.3325 13.1154 30.4588L13.3988 30.4706H22.8109V29.9852C22.8113 29.3748 22.5577 28.786 22.0993 28.3325C21.6408 27.8791 21.0101 27.5932 20.3289 27.5302L20.0455 27.5184H17.8314C17.4077 27.5222 16.9984 27.3816 16.6872 27.1252C16.3761 26.8688 16.1867 26.516 16.1578 26.1392C16.129 25.7624 16.2628 25.39 16.532 25.0983C16.8011 24.8066 17.1852 24.6176 17.6056 24.5701L17.8314 24.5583H20.0455C21.596 24.5582 23.0881 25.0854 24.2175 26.0322C25.3469 26.9791 26.0284 28.2743 26.1232 29.6536L26.1342 29.9852L26.132 30.4706H30.0022C31.313 30.4706 32.4267 29.6536 32.7012 28.5466L32.7455 28.3058L32.9669 26.6481L34.7869 27.0389C35.9275 27.2864 37.127 27.2042 38.2118 26.8042C39.2967 26.4043 40.2107 25.7072 40.8219 24.8138C41.4331 23.9204 41.7098 22.877 41.612 21.8342C41.5142 20.7915 41.047 19.8035 40.2778 19.013L40.0077 18.7564L28.0228 8.07428V8.07428ZM7.3101 16.6587C6.46074 16.6634 5.6457 16.9581 5.03258 17.482C4.41946 18.0059 4.05486 18.7193 4.01374 19.4755C3.97263 20.2316 4.25813 20.9731 4.81153 21.5474C5.36494 22.1217 6.14419 22.4852 6.98906 22.5631L7.3101 22.575L7.56251 22.5651L7.57358 22.5158C7.65107 22.2198 7.74406 21.9336 7.85255 21.6514L8.06732 21.1482L8.30201 20.6825L8.42821 20.4595L8.71604 19.9977L8.91088 19.7214L9.23192 19.307L9.39577 19.1136L9.63489 18.8492L9.9205 18.5591L10.2526 18.2492C9.78766 17.4599 8.94631 16.8876 7.95661 16.7139L7.62229 16.6705L7.3101 16.6567V16.6587Z" fill="#272727"/>
</g>
<defs>
<clipPath id="clip0_461_12718">
<rect width="46" height="41" fill="white" transform="translate(0.666748)"/>
</clipPath>
</defs>
</svg>
