<svg width="46" height="41" viewBox="0 0 46 41" fill="none" xmlns="http://www.w3.org/2000/svg">
<path d="M10.4766 29.8429L21.9722 19.5967L24.0063 21.4084L12.5092 31.6546L10.4766 29.8429Z" fill="#272727"/>
<path d="M24.4376 38.4375C24.2555 38.4379 24.0751 38.4074 23.9057 38.3478C23.6702 38.2641 23.4637 38.1264 23.3072 37.9487C23.1507 37.7709 23.0497 37.5594 23.0145 37.3356L21.577 28.3669L24.452 28.0081L25.5301 34.7603L30.1876 31.4162V21.7812C30.1865 21.6126 30.2228 21.4455 30.2943 21.2894C30.3659 21.1333 30.4713 20.9913 30.6045 20.8716L36.4551 15.6569C37.6607 14.5896 38.6168 13.3199 39.2682 11.9212C39.9196 10.5225 40.2533 9.02254 40.2501 7.50811V5.12499H37.5764C35.8772 5.12211 34.1944 5.41958 32.6251 6.00018C31.0558 6.58078 29.6312 7.43298 28.4339 8.50749L22.5832 13.7222C22.4489 13.8409 22.2896 13.9349 22.1145 13.9986C21.9393 14.0624 21.7518 14.0947 21.5626 14.0937H10.7526L7.00073 18.2706L14.5764 19.2316L14.1739 21.7941L4.11136 20.5128C3.86029 20.4814 3.623 20.3914 3.42356 20.2519C3.22411 20.1124 3.06962 19.9283 2.97573 19.7184C2.88069 19.5071 2.85056 19.2769 2.88846 19.0517C2.92636 18.8265 3.03092 18.6144 3.19136 18.4372L8.94136 12.0309C9.07378 11.8776 9.24346 11.7529 9.43765 11.6664C9.63185 11.5799 9.84551 11.5336 10.0626 11.5312H20.9732L26.3926 6.68811C27.8577 5.37497 29.6006 4.33411 31.5204 3.62591C33.4402 2.91771 35.4986 2.55625 37.5764 2.56249H40.2501C41.0126 2.56249 41.7439 2.83246 42.283 3.31303C42.8222 3.79359 43.1251 4.44537 43.1251 5.12499V7.50811C43.1321 9.35999 42.7266 11.1947 41.932 12.9058C41.1374 14.6169 39.9696 16.1704 38.4964 17.4762L33.0626 22.3066V32.0312C33.0616 32.2237 33.012 32.4135 32.9174 32.5865C32.8229 32.7595 32.6858 32.9113 32.5164 33.0306L25.3289 38.1556C25.0759 38.3365 24.7619 38.4358 24.4376 38.4375Z" fill="#272727"/>
</svg>
