<svg width="33" height="33" viewBox="0 0 33 33" fill="none" xmlns="http://www.w3.org/2000/svg">
<path d="M27.9372 5.47529L16.9866 1.74346C16.8545 1.69834 16.6772 1.67578 16.5 1.67578C16.3228 1.67578 16.1455 1.69834 16.0134 1.74346L5.06279 5.47529C4.79531 5.56553 4.57617 5.8749 4.57617 6.1585V21.7046C4.57617 21.9882 4.75986 22.362 4.98223 22.5393L16.0907 31.1953C16.2035 31.2823 16.3485 31.3274 16.4968 31.3274C16.645 31.3274 16.7933 31.2823 16.9028 31.1953L28.0113 22.5393C28.2337 22.3652 28.4174 21.9914 28.4174 21.7046V6.1585C28.4238 5.8749 28.2047 5.56875 27.9372 5.47529ZM26.1035 21.0858L16.5 28.5688L6.89648 21.0858V7.30576L16.5 4.03154L26.1035 7.30576V21.0858ZM13.026 14.6083C12.9293 14.4762 12.7746 14.3956 12.607 14.3956H10.8281C10.6187 14.3956 10.4962 14.6341 10.6187 14.8049L14.6921 20.4123C14.7403 20.4782 14.8033 20.5319 14.8761 20.5688C14.9489 20.6058 15.0294 20.6251 15.111 20.6251C15.1927 20.6251 15.2732 20.6058 15.346 20.5688C15.4188 20.5319 15.4818 20.4782 15.53 20.4123L22.3813 10.9796C22.5038 10.8088 22.3813 10.5703 22.1719 10.5703H20.393C20.2286 10.5703 20.0707 10.6509 19.974 10.783L15.111 17.4797L13.026 14.6083Z" fill="white"/>
</svg>
