<svg width="46" height="46" viewBox="0 0 46 46" fill="none" xmlns="http://www.w3.org/2000/svg">
<path d="M32.9112 29.0519H30.8786L30.1582 28.3572C32.6797 25.4241 34.1977 21.6162 34.1977 17.4738C34.1977 8.23714 26.7105 0.75 17.4738 0.75C8.23714 0.75 0.75 8.23714 0.75 17.4738C0.75 26.7105 8.23714 34.1977 17.4738 34.1977C21.6162 34.1977 25.4241 32.6797 28.3572 30.1582L29.0519 30.8786V32.9112L41.9164 45.75L45.75 41.9164L32.9112 29.0519ZM17.4738 29.0519C11.0673 29.0519 5.8958 23.8804 5.8958 17.4738C5.8958 11.0673 11.0673 5.8958 17.4738 5.8958C23.8804 5.8958 29.0519 11.0673 29.0519 17.4738C29.0519 23.8804 23.8804 29.0519 17.4738 29.0519Z" fill="white"/>
</svg>
