<svg width="54" height="54" viewBox="0 0 54 54" fill="none" xmlns="http://www.w3.org/2000/svg">
<path d="M38.9112 35.0519H36.8786L36.1582 34.3572C38.6797 31.4241 40.1977 27.6162 40.1977 23.4738C40.1977 14.2371 32.7105 6.75 23.4738 6.75C14.2371 6.75 6.75 14.2371 6.75 23.4738C6.75 32.7105 14.2371 40.1977 23.4738 40.1977C27.6162 40.1977 31.4241 38.6797 34.3572 36.1582L35.0519 36.8786V38.9112L47.9164 51.75L51.75 47.9164L38.9112 35.0519ZM23.4738 35.0519C17.0673 35.0519 11.8958 29.8804 11.8958 23.4738C11.8958 17.0673 17.0673 11.8958 23.4738 11.8958C29.8804 11.8958 35.0519 17.0673 35.0519 23.4738C35.0519 29.8804 29.8804 35.0519 23.4738 35.0519Z" fill="black"/>
</svg>
