<svg width="55" height="55" viewBox="0 0 55 55" fill="none" xmlns="http://www.w3.org/2000/svg">
<path d="M16.0416 41.25C13.5208 41.25 11.4812 43.3125 11.4812 45.8334C11.4812 48.3542 13.5208 50.4167 16.0416 50.4167C18.5625 50.4167 20.625 48.3542 20.625 45.8334C20.625 43.3125 18.5625 41.25 16.0416 41.25ZM2.29163 4.58337V9.16671H6.87496L15.125 26.5605L12.0312 32.175C11.6645 32.8167 11.4583 33.573 11.4583 34.375C11.4583 36.8959 13.5208 38.9584 16.0416 38.9584H43.5416V34.375H17.0041C16.6833 34.375 16.4312 34.123 16.4312 33.8021L16.5 33.5271L18.5625 29.7917H35.6354C37.3541 29.7917 38.8666 28.8521 39.6458 27.4313L47.85 12.5584C48.0333 12.2375 48.125 11.848 48.125 11.4584C48.125 10.198 47.0937 9.16671 45.8333 9.16671H11.9395L9.78538 4.58337H2.29163ZM38.9583 41.25C36.4375 41.25 34.3979 43.3125 34.3979 45.8334C34.3979 48.3542 36.4375 50.4167 38.9583 50.4167C41.4791 50.4167 43.5416 48.3542 43.5416 45.8334C43.5416 43.3125 41.4791 41.25 38.9583 41.25Z" fill="url(#paint0_linear_335_8403)"/>
<defs>
<linearGradient id="paint0_linear_335_8403" x1="-52.7084" y1="112.865" x2="9.16354" y2="156.304" gradientUnits="userSpaceOnUse">
<stop stop-color="#00F260"/>
<stop offset="1" stop-color="#0575E6"/>
</linearGradient>
</defs>
</svg>
