<svg width="55" height="55" viewBox="0 0 55 55" fill="none" xmlns="http://www.w3.org/2000/svg">
<path d="M16.0416 41.25C13.5208 41.25 11.4812 43.3125 11.4812 45.8334C11.4812 48.3542 13.5208 50.4167 16.0416 50.4167C18.5625 50.4167 20.625 48.3542 20.625 45.8334C20.625 43.3125 18.5625 41.25 16.0416 41.25ZM2.29163 4.58337V9.16671H6.87496L15.125 26.5605L12.0312 32.175C11.6645 32.8167 11.4583 33.573 11.4583 34.375C11.4583 36.8959 13.5208 38.9584 16.0416 38.9584H43.5416V34.375H17.0041C16.6833 34.375 16.4312 34.123 16.4312 33.8021L16.5 33.5271L18.5625 29.7917H35.6354C37.3541 29.7917 38.8666 28.8521 39.6458 27.4313L47.85 12.5584C48.0333 12.2375 48.125 11.848 48.125 11.4584C48.125 10.198 47.0937 9.16671 45.8333 9.16671H11.9395L9.78538 4.58337H2.29163ZM38.9583 41.25C36.4375 41.25 34.3979 43.3125 34.3979 45.8334C34.3979 48.3542 36.4375 50.4167 38.9583 50.4167C41.4791 50.4167 43.5416 48.3542 43.5416 45.8334C43.5416 43.3125 41.4791 41.25 38.9583 41.25Z" fill="url(#paint0_linear_335_8412)"/>
<path fill-rule="evenodd" clip-rule="evenodd" d="M40 2.16663C32.9125 2.16663 27.1666 7.91246 27.1666 15C27.1666 22.0875 32.9125 27.8333 40 27.8333C47.0875 27.8333 52.8333 22.0875 52.8333 15C52.8333 7.91246 47.0875 2.16663 40 2.16663ZM41.1666 19.6666C41.1666 19.976 41.0437 20.2728 40.8249 20.4916C40.6061 20.7104 40.3094 20.8333 40 20.8333C39.6905 20.8333 39.3938 20.7104 39.175 20.4916C38.9562 20.2728 38.8333 19.976 38.8333 19.6666V16.1666H35.3333C35.0239 16.1666 34.7271 16.0437 34.5083 15.8249C34.2895 15.6061 34.1666 15.3094 34.1666 15C34.1666 14.6905 34.2895 14.3938 34.5083 14.175C34.7271 13.9562 35.0239 13.8333 35.3333 13.8333H38.8333V10.3333C38.8333 10.0239 38.9562 9.72713 39.175 9.50833C39.3938 9.28954 39.6905 9.16663 40 9.16663C40.3094 9.16663 40.6061 9.28954 40.8249 9.50833C41.0437 9.72713 41.1666 10.0239 41.1666 10.3333V13.8333H44.6666C44.976 13.8333 45.2728 13.9562 45.4916 14.175C45.7104 14.3938 45.8333 14.6905 45.8333 15C45.8333 15.3094 45.7104 15.6061 45.4916 15.8249C45.2728 16.0437 44.976 16.1666 44.6666 16.1666H41.1666V19.6666Z" fill="white"/>
<defs>
<linearGradient id="paint0_linear_335_8412" x1="-569.685" y1="975.48" x2="-489.256" y2="1018.96" gradientUnits="userSpaceOnUse">
<stop stop-color="#0575E6"/>
<stop offset="1" stop-color="#00F260"/>
</linearGradient>
</defs>
</svg>
