<svg width="77" height="53" viewBox="0 0 77 53" fill="none" xmlns="http://www.w3.org/2000/svg">
<path d="M34.1832 0C27.0799 0 22.1568 2.64759 18.711 6.63342C15.3711 10.4941 13.5328 15.4812 12.1756 19.9629L10.934 24.0594H2.40625C1.76807 24.0594 1.15603 24.313 0.704775 24.7644C0.253515 25.2157 0 25.828 0 26.4663C0 31.646 2.39181 36.5849 6.24181 39.1266L4.1195 44.287C3.72383 45.2454 3.57055 46.2867 3.67323 47.3185C3.77591 48.3504 4.13139 49.341 4.70818 50.2026C5.28497 51.0642 6.06527 51.7702 6.97999 52.2582C7.8947 52.7461 8.91559 53.0009 9.95225 53H16.9881C19.4329 53 21.6563 51.5847 22.6958 49.3752L24.9576 44.5614C31.2812 45.4375 37.6867 45.4375 44.0103 44.5614L46.2722 49.3752C47.3117 51.5895 49.5351 53 51.9798 53H58.9483C59.985 53.0009 61.0059 52.7461 61.9206 52.2582C62.8353 51.7702 63.6156 51.0642 64.1924 50.2026C64.7692 49.341 65.1247 48.3504 65.2273 47.3185C65.33 46.2867 65.1767 45.2454 64.7811 44.287L62.3844 38.4816H70.5801C73.8286 38.4816 77 35.9736 77 32.4306V28.8732C77 23.3999 72.2452 19.2648 66.7927 19.2648H56.8067C55.4304 14.8987 53.4091 10.2342 50.0307 6.57566C46.3829 2.63315 41.2816 0.00481346 34.1832 0.00481346V0ZM60.984 33.6726L58.212 24.0738H66.7927C69.9545 24.0738 72.1875 26.4085 72.1875 28.8684V32.4354C72.1875 32.8687 71.6437 33.6726 70.5801 33.6726H60.984ZM58.2361 41.0473L60.3295 46.1259C60.4239 46.3529 60.4607 46.5998 60.4367 46.8445C60.4127 47.0892 60.3286 47.3241 60.1919 47.5285C60.0552 47.7329 59.8702 47.9003 59.6532 48.0158C59.4363 48.1314 59.1941 48.1916 58.9483 48.191H51.9798C51.6958 48.191 51.4176 48.11 51.1781 47.9573C50.9385 47.8047 50.7475 47.5868 50.6275 47.3293L48.9239 43.7045C52.085 43.0325 55.1963 42.1447 58.2361 41.0473ZM20.0441 43.7093L18.3404 47.3293C18.2208 47.5861 18.0305 47.8035 17.7919 47.956C17.5533 48.1086 17.2761 48.1901 16.9929 48.191H9.94744C9.70206 48.1904 9.46058 48.1295 9.24428 48.0136C9.02798 47.8977 8.84348 47.7304 8.70704 47.5264C8.5706 47.3224 8.48639 47.0879 8.46184 46.8437C8.43729 46.5995 8.47315 46.353 8.56625 46.1259L10.6597 41.0281C13.7397 42.1449 16.8774 43.0402 20.0441 43.7093V43.7093ZM7.854 34.2502C6.37394 32.7977 5.38746 30.9168 5.03388 28.8732H9.48063L7.854 34.2454V34.2502ZM16.786 21.3589C18.1094 16.9687 19.7168 12.8288 22.3493 9.78165C24.8758 6.85967 28.4611 4.81381 34.188 4.81381C39.9293 4.81381 43.7552 6.87411 46.4984 9.83942C49.3185 12.8962 51.1088 17.0361 52.4178 21.3444L56.7779 36.4549C42.3908 41.722 26.6046 41.7271 12.2141 36.4694L16.786 21.354V21.3589Z" fill="#131313"/>
</svg>
