<svg width="67" height="67" viewBox="0 0 67 67" fill="none" xmlns="http://www.w3.org/2000/svg">
<path d="M5.73824 64.2083C5.35019 64.2072 4.96615 64.1297 4.60806 63.9802C4.24996 63.8307 3.92482 63.6121 3.65121 63.3369C3.37759 63.0618 3.16085 62.7354 3.01336 62.3765C2.86588 62.0175 2.79054 61.633 2.79164 61.245V5.75504C2.79164 4.11773 4.1107 2.79169 5.73824 2.79169H61.2631C62.8892 2.79169 64.2083 4.11773 64.2083 5.75504V61.245C64.2094 61.633 64.1341 62.0175 63.9866 62.3765C63.8391 62.7354 63.6223 63.0618 63.3487 63.3369C63.0751 63.6121 62.75 63.8307 62.3919 63.9802C62.0338 64.1297 61.6497 64.2072 61.2617 64.2083H5.73685H5.73824Z" stroke="black" stroke-width="4" stroke-linecap="round" stroke-linejoin="round"/>
<path fill-rule="evenodd" clip-rule="evenodd" d="M53.9643 24.9673H47.1694C46.2646 24.9673 45.3969 25.3267 44.7571 25.9665C44.1174 26.6062 43.758 27.4739 43.758 28.3787V35.2043H53.9643L52.4708 45.4386H43.758V64.2083H32.5313V45.4386H23.2629V35.2057H32.4126L32.5313 25.4921L32.4978 22.0109C32.4865 20.8348 32.7085 19.6682 33.1507 18.5784C33.593 17.4886 34.2469 16.4973 35.0746 15.6617C35.9023 14.8261 36.8873 14.1628 37.9729 13.7102C39.0584 13.2575 40.2229 13.0245 41.399 13.0245H53.9643V24.9673Z" fill="black"/>
</svg>
