<svg width="74" height="74" viewBox="0 0 74 74" fill="none" xmlns="http://www.w3.org/2000/svg">
<path d="M37 0C26.9591 0 25.6965 0.04625 21.7514 0.222C17.8062 0.407 15.1191 1.02675 12.765 1.9425C10.2957 2.87129 8.05902 4.3282 6.21138 6.21138C4.32935 8.05997 2.87262 10.2964 1.9425 12.765C1.02675 15.1145 0.402375 17.8062 0.222 21.7375C0.04625 25.6919 0 26.9499 0 37.0046C0 47.0501 0.04625 48.3081 0.222 52.2533C0.407 56.1938 1.02675 58.8809 1.9425 61.235C2.89062 63.6677 4.15325 65.7305 6.21138 67.7886C8.26488 69.8467 10.3276 71.114 12.7604 72.0575C15.1191 72.9733 17.8016 73.5976 21.7421 73.778C25.6919 73.9538 26.9499 74 37 74C47.0501 74 48.3035 73.9538 52.2533 73.778C56.1891 73.593 58.8855 72.9733 61.2396 72.0575C63.7074 71.1283 65.9424 69.6714 67.7886 67.7886C69.8467 65.7305 71.1094 63.6677 72.0575 61.235C72.9686 58.8809 73.593 56.1938 73.778 52.2533C73.9538 48.3081 74 47.0501 74 37C74 26.9499 73.9538 25.6919 73.778 21.7421C73.593 17.8063 72.9686 15.1145 72.0575 12.765C71.1275 10.2963 69.6708 8.05988 67.7886 6.21138C65.9415 4.3275 63.7047 2.87049 61.235 1.9425C58.8762 1.02675 56.1845 0.402375 52.2486 0.222C48.2989 0.04625 47.0455 0 36.9907 0H37.0046H37ZM33.6839 6.66925H37.0046C46.8836 6.66925 48.0537 6.70163 51.9526 6.882C55.5601 7.04388 57.5211 7.64975 58.8254 8.15388C60.5505 8.8245 61.7854 9.62925 63.0804 10.9242C64.3754 12.2192 65.1755 13.4495 65.8461 15.1793C66.3549 16.4789 66.9561 18.4399 67.118 22.0474C67.2984 25.9463 67.3354 27.1164 67.3354 36.9907C67.3354 46.8651 67.2984 48.0399 67.118 51.9387C66.9561 55.5462 66.3503 57.5026 65.8461 58.8069C65.2529 60.4134 64.3061 61.866 63.0757 63.0573C61.7807 64.3522 60.5505 65.1524 58.8208 65.823C57.5258 66.3317 55.5648 66.933 51.9526 67.0995C48.0537 67.2753 46.8836 67.3169 37.0046 67.3169C27.1256 67.3169 25.9509 67.2753 22.052 67.0995C18.4445 66.933 16.4881 66.3317 15.1839 65.823C13.5767 65.2306 12.1227 64.2856 10.9289 63.0573C9.69747 61.8642 8.74922 60.4102 8.15388 58.8022C7.64975 57.5026 7.04388 55.5416 6.882 51.9341C6.70625 48.0353 6.66925 46.8651 6.66925 36.9815C6.66925 27.1025 6.70625 25.937 6.882 22.0381C7.0485 18.4306 7.64975 16.4696 8.1585 15.1654C8.82913 13.4403 9.63387 12.2054 10.9289 10.9104C12.2239 9.61537 13.4541 8.81525 15.1839 8.14462C16.4881 7.63588 18.4445 7.03463 22.052 6.86812C25.4653 6.71088 26.788 6.66463 33.6839 6.66V6.66925ZM56.7534 12.8112C56.1703 12.8112 55.5929 12.9261 55.0543 13.1492C54.5156 13.3724 54.0261 13.6994 53.6138 14.1117C53.2015 14.524 52.8745 15.0134 52.6513 15.5521C52.4282 16.0908 52.3134 16.6682 52.3134 17.2512C52.3134 17.8343 52.4282 18.4117 52.6513 18.9504C52.8745 19.489 53.2015 19.9785 53.6138 20.3908C54.0261 20.8031 54.5156 21.1301 55.0543 21.3533C55.5929 21.5764 56.1703 21.6912 56.7534 21.6912C57.9309 21.6912 59.0603 21.2235 59.8929 20.3908C60.7256 19.5581 61.1934 18.4288 61.1934 17.2512C61.1934 16.0737 60.7256 14.9444 59.8929 14.1117C59.0603 13.279 57.9309 12.8112 56.7534 12.8112ZM37.0046 18.0005C34.4843 17.9612 31.9814 18.4236 29.6415 19.3609C27.3017 20.2982 25.1716 21.6916 23.3754 23.46C21.5793 25.2283 20.1528 27.3364 19.1791 29.6613C18.2055 31.9863 17.704 34.4817 17.704 37.0023C17.704 39.5229 18.2055 42.0183 19.1791 44.3433C20.1528 46.6683 21.5793 48.7763 23.3754 50.5447C25.1716 52.313 27.3017 53.7064 29.6415 54.6437C31.9814 55.581 34.4843 56.0434 37.0046 56.0041C41.9929 55.9263 46.7505 53.8901 50.2505 50.335C53.7506 46.78 55.7123 41.9912 55.7123 37.0023C55.7123 32.0135 53.7506 27.2247 50.2505 23.6696C46.7505 20.1145 41.9929 18.0783 37.0046 18.0005ZM37.0046 24.6651C40.276 24.6651 43.4135 25.9647 45.7267 28.2779C48.0399 30.5912 49.3395 33.7286 49.3395 37C49.3395 40.2714 48.0399 43.4088 45.7267 45.7221C43.4135 48.0353 40.276 49.3349 37.0046 49.3349C33.7332 49.3349 30.5958 48.0353 28.2826 45.7221C25.9693 43.4088 24.6698 40.2714 24.6698 37C24.6698 33.7286 25.9693 30.5912 28.2826 28.2779C30.5958 25.9647 33.7332 24.6651 37.0046 24.6651Z" fill="black"/>
</svg>
