<svg width="54" height="54" viewBox="0 0 54 54" fill="none" xmlns="http://www.w3.org/2000/svg">
<path d="M53.8785 2.31533C54.0013 2.00866 54.0313 1.67271 53.9649 1.34913C53.8986 1.02555 53.7387 0.728562 53.5051 0.49499C53.2715 0.261418 52.9746 0.101533 52.651 0.0351552C52.3274 -0.0312224 51.9914 -0.00117308 51.6848 0.121578L2.58864 19.7607C2.15627 19.9338 1.78003 20.2228 1.50132 20.5959C1.22262 20.969 1.05226 21.4118 1.00899 21.8755C0.965729 22.3392 1.05123 22.8059 1.2561 23.2241C1.46097 23.6424 1.77725 23.996 2.17014 24.2461L19.0283 34.9718L24.1954 43.0921C24.4394 43.4605 24.8183 43.7185 25.2505 43.8107C25.6828 43.9028 26.1339 43.8217 26.507 43.5848C26.88 43.3478 27.1453 42.974 27.2457 42.5436C27.3461 42.1132 27.2736 41.6606 27.0439 41.2831L22.3999 33.9863L47.6921 8.69408L41.2965 24.6848C41.2087 24.8915 41.1629 25.1136 41.162 25.3381C41.1611 25.5627 41.205 25.7852 41.2911 25.9926C41.3773 26.1999 41.5039 26.388 41.6637 26.5458C41.8235 26.7036 42.0131 26.8279 42.2216 26.9115C42.43 26.995 42.653 27.0361 42.8776 27.0324C43.1021 27.0287 43.3236 26.9801 43.5291 26.8897C43.7347 26.7993 43.9201 26.6687 44.0745 26.5057C44.229 26.3427 44.3493 26.1504 44.4285 25.9403L53.8785 2.31533V2.31533ZM45.306 6.30795L20.0138 31.6002L5.36964 22.2818L45.306 6.30795V6.30795Z" fill="white"/>
<path d="M54 42.1875C54 45.3204 52.7555 48.3249 50.5402 50.5402C48.3249 52.7555 45.3204 54 42.1875 54C39.0546 54 36.0501 52.7555 33.8348 50.5402C31.6195 48.3249 30.375 45.3204 30.375 42.1875C30.375 39.0546 31.6195 36.0501 33.8348 33.8348C36.0501 31.6195 39.0546 30.375 42.1875 30.375C45.3204 30.375 48.3249 31.6195 50.5402 33.8348C52.7555 36.0501 54 39.0546 54 42.1875V42.1875ZM42.1875 35.4375C41.7399 35.4375 41.3107 35.6153 40.9943 35.9318C40.6778 36.2482 40.5 36.6774 40.5 37.125V40.5H37.125C36.6774 40.5 36.2482 40.6778 35.9318 40.9943C35.6153 41.3107 35.4375 41.7399 35.4375 42.1875C35.4375 42.6351 35.6153 43.0643 35.9318 43.3807C36.2482 43.6972 36.6774 43.875 37.125 43.875H40.5V47.25C40.5 47.6976 40.6778 48.1268 40.9943 48.4432C41.3107 48.7597 41.7399 48.9375 42.1875 48.9375C42.6351 48.9375 43.0643 48.7597 43.3807 48.4432C43.6972 48.1268 43.875 47.6976 43.875 47.25V43.875H47.25C47.6976 43.875 48.1268 43.6972 48.4432 43.3807C48.7597 43.0643 48.9375 42.6351 48.9375 42.1875C48.9375 41.7399 48.7597 41.3107 48.4432 40.9943C48.1268 40.6778 47.6976 40.5 47.25 40.5H43.875V37.125C43.875 36.6774 43.6972 36.2482 43.3807 35.9318C43.0643 35.6153 42.6351 35.4375 42.1875 35.4375Z" fill="white"/>
</svg>
