<svg width="56" height="56" viewBox="0 0 56 56" fill="none" xmlns="http://www.w3.org/2000/svg">
<path d="M28 1.49329L19.2033 6.99995H11.6666V11.6666L6.92996 14.6766C5.57663 15.4933 4.66663 16.9633 4.66663 18.6666V42C4.66663 43.2376 5.15829 44.4246 6.03346 45.2998C6.90863 46.175 8.09562 46.6666 9.33329 46.6666H46.6666C49.2566 46.6666 51.3333 44.59 51.3333 42V18.6666C51.3333 16.9633 50.4233 15.4933 49.07 14.6766L44.3333 11.6666V6.99995H36.7966L28 1.49329ZM16.3333 11.6666H39.6666V23.0533L28 30.3333L16.3333 23.0533V11.6666ZM18.6666 14V17.5H37.3333V14H18.6666ZM11.6666 17.22V20.1366L9.33329 18.6666L11.6666 17.22ZM44.3333 17.22L46.6666 18.6666L44.3333 20.1366V17.22ZM18.6666 19.8333V23.3333H37.3333V19.8333H18.6666Z" fill="black"/>
</svg>
