<svg width="50" height="50" viewBox="0 0 50 50" fill="none" xmlns="http://www.w3.org/2000/svg">
<path d="M0 12.5C0 10.8424 0.65848 9.25268 1.83058 8.08058C3.00269 6.90848 4.5924 6.25 6.25 6.25H43.75C45.4076 6.25 46.9973 6.90848 48.1694 8.08058C49.3415 9.25268 50 10.8424 50 12.5V15.625H0V12.5ZM0 21.875V37.5C0 39.1576 0.65848 40.7473 1.83058 41.9194C3.00269 43.0915 4.5924 43.75 6.25 43.75H43.75C45.4076 43.75 46.9973 43.0915 48.1694 41.9194C49.3415 40.7473 50 39.1576 50 37.5V21.875H0ZM9.375 28.125H12.5C13.3288 28.125 14.1237 28.4542 14.7097 29.0403C15.2958 29.6263 15.625 30.4212 15.625 31.25V34.375C15.625 35.2038 15.2958 35.9987 14.7097 36.5847C14.1237 37.1708 13.3288 37.5 12.5 37.5H9.375C8.5462 37.5 7.75134 37.1708 7.16529 36.5847C6.57924 35.9987 6.25 35.2038 6.25 34.375V31.25C6.25 30.4212 6.57924 29.6263 7.16529 29.0403C7.75134 28.4542 8.5462 28.125 9.375 28.125Z" fill="black"/>
</svg>
